<svg width="201" height="37" viewBox="0 0 201 37" fill="none" xmlns="http://www.w3.org/2000/svg">
<path d="M32.982 2.72821C25.1127 14.2304 13.6029 18.8735 0 19.5771C0.467746 19.1584 1.087 19.2548 1.65035 19.1728C9.01074 18.0922 15.6577 15.4102 21.3825 10.7153C24.5993 8.07641 27.1837 4.9354 28.7223 1.06346C28.9576 0.470655 29.2812 0.417417 29.8269 0.562741C34.8942 1.91814 38.8362 4.75267 41.4632 9.20735C45.9421 16.8016 44.505 26.0548 37.9919 32.0764C32.2877 37.3512 23.355 38.5325 16.4285 34.9268C16.2358 34.826 15.9196 34.7743 15.9313 34.5282C15.9446 34.2476 16.2696 34.2994 16.477 34.2505C18.148 33.8577 19.8145 33.4361 21.4104 32.8131C22.6298 32.3368 23.858 32.1714 25.1715 32.1915C29.1768 32.2491 32.5554 30.7455 35.3281 27.9584C37.1491 26.1282 38.2993 23.9196 38.8524 21.4203C38.9038 21.1886 39.0259 20.9527 38.8377 20.6519C30.7168 29.38 20.4705 33.6376 8.62095 34.5153C9.01074 34.1786 9.52114 34.2088 9.98594 34.1282C16.8536 32.9325 23.0946 30.3239 28.6105 26.1426C32.7967 22.9685 36.1224 19.121 37.9007 14.1397C38.742 11.7829 38.9965 8.59008 38.4537 6.70663C38.417 6.73396 38.3581 6.75555 38.3493 6.79008C36.9049 12.4692 33.2306 16.5642 28.5369 19.9009C23.1917 23.7009 17.1478 25.8117 10.6523 26.7584C7.54278 27.2117 4.42153 27.3311 1.28704 27.0519C1.08994 27.0347 0.879598 27.075 0.658963 26.9023C0.900191 26.6318 1.21643 26.7455 1.47825 26.7426C8.7445 26.6707 15.5121 24.8404 21.7075 21.1268C25.8687 18.6332 29.3239 15.4332 31.5111 11.0707C32.8128 8.47353 33.2894 5.73252 33.032 2.86058C33.0261 2.79583 32.9864 2.7354 32.9835 2.73109L32.982 2.72821ZM7.12063 17.2145C8.29735 16.8448 9.45789 16.4189 10.6331 16.0448C11.173 15.8721 11.4215 15.5383 11.5701 15.0059C13.1587 9.29368 17.9185 5.38288 23.9654 4.80735C24.3508 4.77137 24.6288 4.65051 24.8435 4.32965C25.6054 3.19152 26.3159 2.02893 26.8851 0.782885C27.144 0.21454 26.9925 0.0246116 26.3909 0.0116619C24.7979 -0.0243093 23.2152 0.010223 21.6399 0.297993C13.469 1.79583 6.96765 8.70375 6.33517 16.5872C6.26751 17.426 6.30134 17.4721 7.12063 17.2145Z" fill="#E8650A"/>
<path d="M116.879 29.7111V26.0794L126.427 17.2593C127.181 16.5917 127.74 15.9974 128.106 15.478C128.471 14.96 128.712 14.4751 128.83 14.0247C128.948 13.5744 129.008 13.1542 129.008 12.7629C129.008 11.8176 128.677 11.0794 128.018 10.5485C127.358 10.019 126.368 9.7528 125.048 9.7528C123.986 9.7528 123.02 9.96 122.149 10.3758C121.277 10.7902 120.534 11.4032 119.921 12.2089L115.785 9.58014C116.704 8.19741 118.012 7.10101 119.709 6.29381C121.406 5.48662 123.363 5.08374 125.578 5.08374C127.417 5.08374 129.032 5.37151 130.422 5.94849C131.812 6.52547 132.891 7.34849 133.658 8.42187C134.424 9.49381 134.806 10.7686 134.806 12.2435C134.806 13.0046 134.695 13.7773 134.471 14.5614C134.247 15.3456 133.84 16.1643 133.252 17.0176C132.662 17.8708 131.79 18.8276 130.635 19.8881C128.724 21.6406 126.813 23.3917 124.903 25.1442C128.476 25.1442 132.048 25.1442 135.62 25.1442V29.7111H116.879Z" fill="#E8650A"/>
<path d="M147.855 30.1254C145.828 30.1254 144.019 29.6362 142.427 28.6549C140.836 27.6751 139.575 26.2578 138.642 24.4003C137.711 22.5441 137.247 20.2794 137.247 17.6031C137.247 14.9269 137.711 12.6636 138.642 10.8075C139.574 8.95134 140.836 7.53263 142.427 6.55278C144.017 5.57292 145.828 5.08228 147.855 5.08228C149.882 5.08228 151.726 5.57292 153.318 6.55278C154.909 7.53263 156.17 8.95134 157.102 10.8075C158.033 12.6636 158.498 14.9298 158.498 17.6031C158.498 20.2765 158.032 22.5441 157.102 24.4003C156.171 26.2578 154.909 27.6751 153.318 28.6549C151.726 29.6362 149.905 30.1254 147.855 30.1254ZM147.855 25.4218C148.821 25.4218 149.664 25.1499 150.383 24.6089C151.101 24.0679 151.667 23.2204 152.079 22.0665C152.491 20.9139 152.698 19.4262 152.698 17.6046C152.698 15.783 152.492 14.2967 152.079 13.1427C151.667 11.9888 151.101 11.1413 150.383 10.6003C149.662 10.0593 148.821 9.78731 147.855 9.78731C146.888 9.78731 146.11 10.0593 145.379 10.6003C144.648 11.1413 144.072 11.9888 143.646 13.1427C143.223 14.2967 143.01 15.783 143.01 17.6046C143.01 19.4262 143.221 20.9139 143.646 22.0665C144.072 23.2204 144.648 24.0679 145.379 24.6089C146.11 25.1499 146.935 25.4218 147.855 25.4218Z" fill="#E8650A"/>
<path d="M191.629 30.1255C190.882 30.1442 188.243 30.1298 185.76 28.76C184.11 27.8492 182.83 26.501 181.924 24.714C181.016 22.9269 180.562 20.7413 180.562 18.1586C180.562 15.3456 181.097 12.9701 182.171 11.0334C183.243 9.09672 184.727 7.6219 186.626 6.60607C188.524 5.59168 190.723 5.08521 193.22 5.08521C194.516 5.08521 195.766 5.22909 196.968 5.51686C198.171 5.80607 199.208 6.2147 200.079 6.7442L197.958 10.8607C197.274 10.3989 196.543 10.0823 195.765 9.90967C194.987 9.737 194.173 9.65067 193.326 9.65067C191.754 9.65067 190.415 10.0018 189.309 10.7053C189.172 10.7931 188.702 11.0996 188.235 11.5715C186.481 13.3413 186.341 15.8348 186.334 16.7327C186.423 16.6435 186.553 16.5183 186.716 16.3787C187.719 15.5212 188.727 15.16 189.244 14.996C190.223 14.6838 191.301 14.5284 192.48 14.5284C194.082 14.5284 195.521 14.8406 196.793 15.4622C198.067 16.0852 199.086 16.96 199.853 18.091C200.619 19.2219 201.001 20.5471 201.001 22.0694C201.001 23.7068 200.59 25.1298 199.764 26.3413C199.669 26.4823 199.35 26.95 198.852 27.4478C196.43 29.8708 192.697 30.1025 191.632 30.1284L191.629 30.1255ZM191.311 25.9399C192.113 25.9399 192.826 25.796 193.451 25.5068C194.075 25.219 194.565 24.7974 194.918 24.2449C195.272 23.691 195.449 23.0564 195.449 22.3428C195.449 21.2363 195.065 20.3543 194.298 19.6967C193.532 19.0392 192.513 18.7097 191.241 18.7097C190.392 18.7097 189.649 18.8723 189.012 19.1946C188.375 19.5183 187.875 19.95 187.509 20.4924C187.144 21.0348 186.96 21.6636 186.96 22.3787C186.96 23.0464 187.138 23.6521 187.491 24.1931C187.844 24.7356 188.34 25.1615 188.977 25.4737C189.614 25.7859 190.39 25.9413 191.31 25.9413L191.311 25.9399Z" fill="#E8650A"/>
<path d="M160.194 29.7111V26.0794L169.742 17.2593C170.496 16.5917 171.055 15.9974 171.422 15.478C171.786 14.96 172.028 14.4751 172.145 14.0247C172.263 13.5744 172.323 13.1542 172.323 12.7629C172.323 11.8176 171.992 11.0794 171.333 10.5485C170.673 10.019 169.683 9.7528 168.364 9.7528C167.302 9.7528 166.335 9.96 165.464 10.3758C164.592 10.7902 163.849 11.4032 163.236 12.2089L159.1 9.58014C160.019 8.19741 161.327 7.10101 163.024 6.29381C164.722 5.48662 166.678 5.08374 168.893 5.08374C170.732 5.08374 172.347 5.37151 173.737 5.94849C175.127 6.52547 176.206 7.34849 176.973 8.42187C177.739 9.49381 178.122 10.7686 178.122 12.2435C178.122 13.0046 178.01 13.7773 177.786 14.5614C177.563 15.3456 177.155 16.1643 176.565 17.0176C175.975 17.8708 175.103 18.8276 173.949 19.8881C172.038 21.6406 170.127 23.3917 168.216 25.1442C171.789 25.1442 175.362 25.1442 178.933 25.1442V29.7111H160.193H160.194Z" fill="#E8650A"/>
<path d="M54.3982 11.475L61.5835 4.26929V33.2247H54.3982V11.475ZM84.659 4.26929H64.618V33.2247H71.6121V22.4117H87.1404V15.7585H71.6121V10.924H94.7715V33.2261L101.766 26.2491V10.9254H109.353V4.26929H84.6605H84.659Z" fill="#E8650A"/>
</svg>
