<svg width="35" height="38" viewBox="0 0 35 38" fill="none" xmlns="http://www.w3.org/2000/svg">
<g clip-path="url(#clip0_27_9)">
<path d="M0.203069 2.27496C-0.127169 1.56494 0.0143617 0.910148 0.496614 0.444693C0.908101 0.0449806 1.71011 -0.20484 2.28671 0.223799L27.0074 18.5264L2.44659 36.716C1.88309 37.1341 1.18592 37.1026 0.648629 36.7107C0.2319 36.4057 -0.200555 35.6667 0.0982317 35.0277L7.76447 18.5264L0.203069 2.27496Z" fill="#091540"/>
<path d="M9.10793 1.51193C9.02406 0.941283 9.41982 0.467939 9.81034 0.236527C10.3267 -0.0685172 10.9295 -0.0764063 11.4327 0.297009L34.4183 17.3216C34.8351 17.6293 35.0107 18.1184 35.0028 18.5655C34.9949 19.0125 34.7853 19.4596 34.3659 19.7725L11.5349 36.6814C11.0422 37.0469 10.4918 37.1179 9.93353 36.8602C9.48797 36.6525 9.08172 36.1633 9.08696 35.5585L30.3952 19.7777C30.8224 19.4596 31.0399 19.0309 31.0504 18.5707C31.0635 18.0658 30.846 17.6109 30.3952 17.2769L9.10793 1.51193Z" fill="#091540"/>
</g>
<defs>
<clipPath id="clip0_27_9">
<rect width="35" height="37.0181" fill="white"/>
</clipPath>
</defs>
</svg>
